# File created by Blade
# Date/Time:  Thu Jan 22 16:31:11 2015
# Frame Rate: 120.000 fps
#------------------------------------------------------
:FULLY-SPECIFIED
:DEGREES
678
root 26.756769 17.904896 -0.451683 1.958033 26.994023 -20.645603
RightUpLeg 16.085337 -5.350786 -36.577578
RightLeg 1.485382 -0.000000 -0.000000
RightFoot -19.501694 -17.217290 39.450010
RightToeBase 17.891324 -0.000000 -0.000000
LeftUpLeg -103.207981 27.847595 6.381300
LeftLeg 134.248397 -0.000000 -0.000000
LeftFoot -29.852271 -1.395279 -24.893539
LeftToeBase -17.522234 -0.000000 0.000000
Spine 32.883611 0.664619 -52.295137
RightShoulder -14.448891 4.510859 -44.368387
RightArm 29.336051 69.158740 -15.986608
RightForeArm -2.157341 0.000000 15.912073
RightHand 14.409172 -0.000000 -44.148277
RightHandThumb1 -24.326973 -0.000000 -32.862282
LeftShoulder -17.241591 42.143033 13.074160
LeftArm 89.903654 -42.121708 -127.419042
LeftForeArm -10.837795 0.000000 8.728317
LeftHand -28.062900 0.000000 97.732529
LeftHandThumb1 -26.253704 0.000000 33.147579
Head 9.387061 7.250496 -48.033872
679
root 26.756993 17.908269 -0.448000 2.019039 26.988935 -20.635673
RightUpLeg 16.049465 -5.404029 -36.584479
RightLeg 1.468500 -0.000000 -0.000000
RightFoot -19.471363 -17.211657 39.453353
RightToeBase 17.878633 -0.000000 -0.000000
LeftUpLeg -103.229107 27.834028 6.372492
LeftLeg 134.235525 -0.000000 -0.000000
LeftFoot -29.876921 -1.397641 -24.923162
LeftToeBase -17.547335 -0.000000 0.000000
Spine 32.877745 0.627097 -52.311760
RightShoulder -14.480684 4.477605 -44.369469
RightArm 29.557519 69.202934 -15.766350
RightForeArm -2.225171 0.000000 15.902187
RightHand 14.357168 -0.000000 -44.276360
RightHandThumb1 -24.326973 -0.000000 -32.862282
LeftShoulder -17.221674 42.098992 13.083017
LeftArm 89.910592 -42.189412 -127.478276
LeftForeArm -10.804367 -0.000000 8.747499
LeftHand -28.079769 0.000000 97.669436
LeftHandThumb1 -26.253704 0.000000 33.147579
Head 9.299534 7.132272 -48.016524
680
root 26.756504 17.911733 -0.442974 2.059903 26.991293 -20.623145
RightUpLeg 16.040695 -5.464764 -36.599452
RightLeg 1.445783 -0.000000 -0.000000
RightFoot -19.448432 -17.190887 39.505253
RightToeBase 17.907889 -0.000000 -0.000000
LeftUpLeg -103.222415 27.815212 6.370711
LeftLeg 134.220520 -0.000000 -0.000000
LeftFoot -29.936952 -1.382884 -24.915770
LeftToeBase -17.456161 -0.000000 0.000000
Spine 32.888853 0.633014 -52.328042
RightShoulder -14.488543 4.490333 -44.380903
RightArm 29.633885 69.193159 -15.648467
RightForeArm -2.167037 -0.000000 15.912233
RightHand 14.428265 -0.000000 -44.082609
RightHandThumb1 -24.326973 -0.000000 -32.862282
LeftShoulder -17.208045 42.108016 13.120343
LeftArm 89.906364 -42.183432 -127.521639
LeftForeArm -10.813340 -0.000000 8.795490
LeftHand -28.043202 -0.000000 97.573864
LeftHandThumb1 -26.253704 0.000000 33.147579
Head 9.258503 6.962569 -48.023264
681
root 26.756705 17.914805 -0.438689 2.128701 26.989652 -20.593479
RightUpLeg 16.007670 -5.529315 -36.627682
RightLeg 1.431134 -0.000000 -0.000000
RightFoot -19.416129 -17.186944 39.493994
RightToeBase 17.936578 -0.000000 -0.000000
LeftUpLeg -103.249498 27.797543 6.341734
LeftLeg 134.209089 -0.000000 -0.000000
LeftFoot -29.939317 -1.365062 -24.953185
LeftToeBase -17.554578 -0.000000 0.000000
Spine 32.860635 0.623407 -52.361322
RightShoulder -14.483249 4.510810 -44.394117
RightArm 29.763223 69.138474 -15.487500
RightForeArm -2.243818 -0.000000 15.942510
RightHand 14.290952 -0.000000 -44.052417
RightHandThumb1 -24.326973 -0.000000 -32.862282
LeftShoulder -17.178926 42.106452 13.157879
LeftArm 89.944920 -42.202314 -127.615937
LeftForeArm -10.740136 -0.000000 8.831893
LeftHand -28.051779 -0.000000 97.466632
LeftHandThumb1 -26.253704 0.000000 33.147579
Head 9.253512 6.901353 -47.945390
682
root 26.756502 17.917651 -0.432926 2.229989 26.979601 -20.559038
RightUpLeg 15.951285 -5.600079 -36.656831
RightLeg 1.408878 -0.000000 -0.000000
RightFoot -19.384062 -17.175655 39.517909
RightToeBase 17.947786 -0.000000 -0.000000
LeftUpLeg -103.308656 27.803191 6.287639
LeftLeg 134.197862 -0.000000 -0.000000
LeftFoot -29.952900 -1.337397 -24.953151
LeftToeBase -17.555050 -0.000000 0.000000
Spine 32.765134 0.595962 -52.412699
RightShoulder -14.420636 4.485261 -44.342457
RightArm 29.825520 69.126047 -15.441600
RightForeArm -2.226756 -0.000000 15.959073
RightHand 14.285495 -0.000000 -43.938106
RightHandThumb1 -24.326973 -0.000000 -32.862282
LeftShoulder -17.138794 42.173708 13.205006
LeftArm 90.011477 -42.205126 -127.749757
LeftForeArm -10.679936 -0.000000 8.901337
LeftHand -28.061578 -0.000000 97.430383
LeftHandThumb1 -26.253704 0.000000 33.147579
Head 9.312780 7.051568 -47.794039
683
root 26.755823 17.923007 -0.431183 2.319464 26.993598 -20.504055
RightUpLeg 15.911341 -5.680451 -36.707511
RightLeg 1.412172 -0.000000 -0.000000
RightFoot -19.358477 -17.151508 39.561752
RightToeBase 17.958623 -0.000000 -0.000000
LeftUpLeg -103.343056 27.772880 6.218033
LeftLeg 134.166813 -0.000000 -0.000000
LeftFoot -29.981870 -1.299280 -24.939180
LeftToeBase -17.556113 -0.000000 0.000000
Spine 32.741426 0.588292 -52.473043
RightShoulder -14.394743 4.474229 -44.325870
RightArm 29.814733 69.090255 -15.440455
RightForeArm -2.276744 0.000000 15.953098
RightHand 14.261203 0.000000 -43.968073
RightHandThumb1 -24.326973 -0.000000 -32.862282
LeftShoulder -17.101542 42.181735 13.270576
LeftArm 90.048767 -42.208847 -127.799832
LeftForeArm -10.629672 -0.000000 8.885047
LeftHand -28.085585 -0.000000 97.380765
LeftHandThumb1 -26.253704 0.000000 33.147579
Head 9.292913 7.017947 -47.702577
684
root 26.752948 17.926726 -0.424797 2.358027 27.002791 -20.491458
RightUpLeg 15.910353 -5.698143 -36.705915
RightLeg 1.388985 -0.000000 -0.000000
RightFoot -19.368626 -17.172006 39.598952
RightToeBase 18.014038 -0.000000 -0.000000
LeftUpLeg -103.335521 27.768703 6.228538
LeftLeg 134.152782 -0.000000 -0.000000
LeftFoot -30.009991 -1.326407 -24.951632
LeftToeBase -17.542237 -0.000000 0.000000
Spine 32.740252 0.596749 -52.484042
RightShoulder -14.393566 4.468386 -44.326729
RightArm 29.893449 69.074736 -15.348259
RightForeArm -2.315126 -0.000000 15.936997
RightHand 14.282428 0.000000 -43.847954
RightHandThumb1 -24.326973 -0.000000 -32.862282
LeftShoulder -17.086286 42.209663 13.295928
LeftArm 90.082125 -42.195477 -127.815894
LeftForeArm -10.632268 -0.000000 8.874562
LeftHand -28.051339 0.000000 97.280042
LeftHandThumb1 -26.253704 0.000000 33.147579
Head 9.242855 6.984214 -47.653150
685
root 26.751599 17.928769 -0.419893 2.409098 27.016509 -20.454779
RightUpLeg 15.903484 -5.717996 -36.731468
RightLeg 1.382833 -0.000000 -0.000000
RightFoot -19.376118 -17.169889 39.649094
RightToeBase 17.993640 -0.000000 -0.000000
LeftUpLeg -103.347210 27.747795 6.205822
LeftLeg 134.142792 -0.000000 -0.000000
LeftFoot -30.005269 -1.329155 -24.973160
LeftToeBase -17.571239 -0.000000 0.000000
Spine 32.754454 0.587178 -52.507240
RightShoulder -14.421014 4.499327 -44.363677
RightArm 30.071391 69.054674 -15.134423
RightForeArm -2.395537 0.000000 15.968007
RightHand 14.147036 -0.000000 -43.848080
RightHandThumb1 -24.326973 -0.000000 -32.862282
LeftShoulder -17.103060 42.179776 13.284154
LeftArm 90.086815 -42.204986 -127.780593
LeftForeArm -10.627608 -0.000000 8.838388
LeftHand -28.103239 -0.000000 97.213388
LeftHandThumb1 -26.253704 0.000000 33.147579
Head 9.141818 6.759754 -47.722531
686
root 26.750777 17.931691 -0.418529 2.509372 27.037805 -20.388500
RightUpLeg 15.871177 -5.734388 -36.775389
RightLeg 1.372130 -0.000000 -0.000000
RightFoot -19.408725 -17.175709 39.734026
RightToeBase 18.057647 -0.000000 -0.000000
LeftUpLeg -103.392450 27.705183 6.123169
LeftLeg 134.115533 -0.000000 -0.000000
LeftFoot -30.054761 -1.300119 -24.979534
LeftToeBase -17.483381 -0.000000 0.000000
Spine 32.726688 0.571180 -52.575699
RightShoulder -14.392418 4.518874 -44.348242
RightArm 30.075736 69.005248 -15.106872
RightForeArm -2.444983 -0.000000 15.990271
RightHand 14.092798 -0.000000 -43.834860
RightHandThumb1 -24.326973 -0.000000 -32.862282
LeftShoulder -17.088443 42.214504 13.324138
LeftArm 90.133376 -42.180583 -127.819501
LeftForeArm -10.618832 0.000000 8.841732
LeftHand -28.110685 -0.000000 97.187570
LeftHandThumb1 -26.253704 0.000000 33.147579
Head 9.117494 6.708275 -47.647502
687
root 26.747400 17.933356 -0.411606 2.537713 27.056661 -20.378181
RightUpLeg 15.879388 -5.718126 -36.766073
RightLeg 1.363653 -0.000000 -0.000000
RightFoot -19.447510 -17.185365 39.811873
RightToeBase 18.066072 -0.000000 -0.000000
LeftUpLeg -103.407875 27.686449 6.118438
LeftLeg 134.108373 -0.000000 -0.000000
LeftFoot -30.054651 -1.256216 -24.978235
LeftToeBase -17.531240 -0.000000 0.000000
Spine 32.736437 0.593928 -52.579805
RightShoulder -14.387205 4.548528 -44.344150
RightArm 30.093672 68.936627 -15.071884
RightForeArm -2.479368 -0.000000 16.004118
RightHand 14.034595 0.000000 -43.877049
RightHandThumb1 -24.326973 -0.000000 -32.862282
LeftShoulder -17.078097 42.236779 13.364102
LeftArm 90.199712 -42.137348 -127.902784
LeftForeArm -10.582318 0.000000 8.824971
LeftHand -28.044006 0.000000 97.113311
LeftHandThumb1 -26.253704 0.000000 33.147579
Head 9.073671 6.635468 -47.585041
688
root 26.742710 17.933842 -0.406089 2.579372 27.108416 -20.369450
RightUpLeg 15.894907 -5.784783 -36.770317
RightLeg 1.360590 -0.000000 -0.000000
RightFoot -19.457199 -17.152070 39.854153
RightToeBase 18.080940 -0.000000 -0.000000
LeftUpLeg -103.445256 27.643502 6.087636
LeftLeg 134.089276 -0.000000 -0.000000
LeftFoot -30.095437 -1.207468 -24.935125
LeftToeBase -17.518799 -0.000000 0.000000
Spine 32.760499 0.588898 -52.560389
RightShoulder -14.391217 4.591890 -44.354735
RightArm 30.191434 68.891371 -14.976267
RightForeArm -2.523704 -0.000000 15.992497
RightHand 14.069173 0.000000 -43.925933
RightHandThumb1 -24.326973 -0.000000 -32.862282
LeftShoulder -17.036297 42.221508 13.399971
LeftArm 90.257957 -42.129644 -127.950748
LeftForeArm -10.552152 0.000000 8.772446
LeftHand -27.955471 -0.000000 97.035231
LeftHandThumb1 -26.253704 0.000000 33.147579
Head 9.020180 6.560846 -47.569286
